<?xml version="1.0" standalone="no"?><!DOCTYPE svg PUBLIC "-//W3C//DTD SVG 1.1//EN" "http://www.w3.org/Graphics/SVG/1.1/DTD/svg11.dtd"><svg viewBox="0 0 683 128" preserveAspectRatio="xMidyMid meet"  version="1.1" xmlns="http://www.w3.org/2000/svg" xmlns:xlink="http://www.w3.org/1999/xlink" xml:space="preserve" style="fill-rule:evenodd;clip-rule:evenodd;stroke-linejoin:round;stroke-miterlimit:1.41421;"><g id="Layer 1"><path id="path10" d="M85.5,103.534c0,0.35433 -0.0709,0.6378 -0.24804,0.88583c-0.17716,0.2126 -0.42519,0.42519 -0.81496,0.60236c-0.38976,0.14173 -0.92126,0.28346 -1.59448,0.38976c-0.67323,0.0709 -1.52363,0.14174 -2.55119,0.14174c-1.06299,0 -1.94881,-0.0354 -2.62204,-0.14174c-0.67323,-0.0709 -1.24016,-0.21259 -1.62992,-0.38976c-0.38977,-0.17717 -0.67323,-0.38976 -0.8504,-0.60236c-0.17716,-0.24803 -0.24803,-0.5315 -0.24803,-0.88583l0,-35.1142c0,-2.44488 -0.2126,-4.67716 -0.63779,-6.69685c-0.4252,-2.01968 -1.13386,-3.7559 -2.05512,-5.20866c-0.9567,-1.45276 -2.12599,-2.55118 -3.57874,-3.33071c-1.45276,-0.77953 -3.15355,-1.16929 -5.13781,-1.16929c-2.44488,0 -4.88976,0.95669 -7.29921,2.83465c-2.44488,1.87795 -5.17323,4.64173 -8.11417,8.29133l0,40.3937c0,0.35433 -0.0709,0.6378 -0.24803,0.88583c-0.17717,0.2126 -0.46063,0.42519 -0.88583,0.60236c-0.38977,0.14173 -0.95669,0.28346 -1.62992,0.38976c-0.67323,0.0709 -1.52362,0.14174 -2.55118,0.14174c-0.99213,0 -1.84252,-0.0354 -2.55118,-0.14174c-0.70867,-0.0709 -1.2756,-0.21259 -1.66536,-0.38976c-0.4252,-0.17717 -0.70866,-0.38976 -0.85039,-0.60236c-0.14174,-0.24803 -0.2126,-0.5315 -0.2126,-0.88583l0,-35.1142c0,-2.44488 -0.24803,-4.67716 -0.70866,-6.69685c-0.49607,-2.01968 -1.16929,-3.7559 -2.12599,-5.20866c-0.95669,-1.45276 -2.12598,-2.55118 -3.5433,-3.33071c-1.45276,-0.77953 -3.11811,-1.16929 -5.10237,-1.16929c-2.44488,0 -4.88976,0.95669 -7.37007,2.83465c-2.48032,1.87795 -5.17323,4.64173 -8.07874,8.29133l0,40.3937c0,0.35433 -0.0709,0.6378 -0.24804,0.88583c-0.17716,0.2126 -0.42519,0.42519 -0.81496,0.60236c-0.38976,0.14173 -0.92126,0.28346 -1.62992,0.38976c-0.67323,0.0709 -1.55905,0.14174 -2.62204,0.14174c-1.063,0 -1.91339,-0.0354 -2.58662,-0.14174c-0.70866,-0.0709 -1.24016,-0.21259 -1.62992,-0.38976c-0.4252,-0.17717 -0.70866,-0.38976 -0.85039,-0.60236c-0.14174,-0.24803 -0.2126,-0.5315 -0.2126,-0.88583l0,-57.7913c0,-0.35433 0.0709,-0.6378 0.2126,-0.88583c0.14173,-0.2126 0.38976,-0.4252 0.77952,-0.6378c0.38977,-0.21259 0.88583,-0.31889 1.48819,-0.38976c0.60237,-0.0709 1.41733,-0.0709 2.37402,-0.0709c0.95669,0 1.73622,0.0354 2.33858,0.0709c0.6378,0.0709 1.13386,0.2126 1.45276,0.38976c0.31889,0.2126 0.60236,0.4252 0.74409,0.6378c0.14173,0.24803 0.2126,0.5315 0.2126,0.88583l0,7.65354c3.25984,-3.64961 6.41339,-6.34252 9.49606,-8.00787c3.04725,-1.70079 6.16536,-2.55119 9.28347,-2.55119c2.40945,0 4.57086,0.28347 6.44882,0.81497c1.91338,0.56692 3.57874,1.34645 5.03149,2.33858c1.45276,0.99212 2.72835,2.19685 3.72047,3.61417c1.02756,1.38189 1.87796,2.94095 2.58662,4.67717c1.91338,-2.09056 3.7559,-3.86221 5.49212,-5.3504c1.73622,-1.45275 3.40158,-2.62204 4.99607,-3.5433c1.59448,-0.88583 3.15354,-1.55906 4.67716,-1.94882c1.52362,-0.4252 3.04725,-0.60237 4.57088,-0.60237c3.72047,0 6.83858,0.67323 9.35433,1.94882c2.51575,1.31103 4.57086,3.08268 6.12992,5.2441c1.55905,2.19685 2.65748,4.74803 3.33071,7.68897c0.67323,2.94095 0.99212,6.02363 0.99212,9.28347l0,36.5315l-0.21259,1.13687e-13Z" style="fill:#2b2a29;fill-rule:nonzero;"/><path id="1" d="M213.626,103.534c0,0.35433 -0.0709,0.6378 -0.2126,0.88583c-0.14173,0.24803 -0.4252,0.46063 -0.77953,0.60236c-0.38976,0.14173 -0.85039,0.24803 -1.45275,0.35433c-0.60236,0.0709 -1.34646,0.14173 -2.19685,0.14173c-0.88583,0 -1.62992,-0.0354 -2.23229,-0.14173c-0.60236,-0.0709 -1.09842,-0.2126 -1.48819,-0.35433c-0.38976,-0.14173 -0.67322,-0.35433 -0.81496,-0.60236c-0.14173,-0.24803 -0.24803,-0.56693 -0.24803,-0.88583l0,-7.68897c-3.04724,3.29527 -6.20078,5.88188 -9.46063,7.7244c-3.29527,1.84252 -6.87401,2.76378 -10.7717,2.76378c-4.21654,0 -7.83071,-0.81496 -10.8071,-2.48031c-3.01181,-1.62992 -5.42126,-3.8622 -7.29921,-6.69685c-1.84252,-2.79921 -3.18898,-6.09449 -4.03937,-9.88583c-0.85039,-3.79133 -1.27559,-7.75984 -1.27559,-11.9764c0,-4.96063 0.5315,-9.46063 1.59449,-13.4646c1.06299,-4.00394 2.65748,-7.44094 4.74803,-10.2402c2.09055,-2.83464 4.67716,-4.99606 7.79528,-6.51968c3.08267,-1.52362 6.66141,-2.26772 10.7362,-2.26772c3.36614,0 6.44881,0.7441 9.28346,2.19685c2.79921,1.48819 5.56299,3.64961 8.29134,6.51969l0,-33.4842c0,-0.3189 0.0709,-0.60237 0.2126,-0.88583c0.14173,-0.28347 0.42519,-0.49606 0.88582,-0.6378c0.4252,-0.14173 0.9567,-0.28346 1.62992,-0.38976c0.67323,-0.1063 1.52363,-0.14173 2.55119,-0.14173c1.06299,0 1.94881,0.0354 2.62204,0.14173c0.67323,0.1063 1.24016,0.24803 1.59449,0.38976c0.38976,0.14174 0.67323,0.35433 0.88583,0.6378c0.2126,0.28346 0.28346,0.56693 0.28346,0.88583l0,85.4646l-0.03543,0.03543ZM202.996,62.8569c-2.83465,-3.57874 -5.59843,-6.27165 -8.29134,-8.14961c-2.65748,-1.87795 -5.45669,-2.79921 -8.3622,-2.79921c-2.69292,0 -4.96063,0.6378 -6.87402,1.91339c-1.87795,1.27559 -3.40158,2.97637 -4.57087,5.06693c-1.16929,2.09055 -2.01968,4.46456 -2.55118,7.12204c-0.53149,2.65748 -0.81496,5.3504 -0.81496,8.07874c0,2.90551 0.2126,5.77559 0.67323,8.53937c0.4252,2.79921 1.24016,5.2441 2.33858,7.44095c1.13386,2.16141 2.58662,3.89763 4.42914,5.20866c1.80708,1.27559 4.14567,1.94882 6.90945,1.94882c1.41732,0 2.76377,-0.2126 4.0748,-0.56693c1.27559,-0.38977 2.62205,-1.02756 4.00394,-1.91339c1.34645,-0.88582 2.79921,-2.05512 4.2874,-3.50787c1.48819,-1.41732 3.08267,-3.18898 4.74803,-5.27953l0,-23.1024l0,0Z" style="fill:#2b2a29;fill-rule:nonzero;"/><path id="2" d="M243.886,103.534c0,0.35433 -0.0709,0.6378 -0.24803,0.88583c-0.17717,0.2126 -0.4252,0.42519 -0.81496,0.60236c-0.38977,0.14173 -0.92126,0.28346 -1.62992,0.38976c-0.67323,0.0709 -1.55906,0.14174 -2.62205,0.14174c-1.06299,0 -1.91339,-0.0354 -2.58661,-0.14174c-0.70867,-0.0709 -1.24016,-0.21259 -1.62993,-0.38976c-0.42519,-0.17717 -0.70866,-0.38976 -0.85039,-0.60236c-0.14173,-0.24803 -0.2126,-0.5315 -0.2126,-0.88583l0,-57.7913c0,-0.3189 0.0709,-0.60237 0.2126,-0.81496c0.14173,-0.24804 0.4252,-0.49607 0.85039,-0.67323c0.38977,-0.14174 0.9567,-0.28347 1.62993,-0.38977c0.67322,-0.0709 1.52362,-0.14173 2.58661,-0.14173c1.06299,0 1.94882,0.0354 2.62205,0.14173c0.70866,0.0709 1.24015,0.2126 1.62992,0.38977c0.38976,0.17716 0.67323,0.38976 0.81496,0.67323c0.17716,0.24803 0.24803,0.53149 0.24803,0.81496l0,57.7913ZM245.055,26.29c0,2.48032 -0.49606,4.1811 -1.41732,5.06693c-0.95669,0.88583 -2.65748,1.34646 -5.20866,1.34646c-2.48032,0 -4.21654,-0.4252 -5.1378,-1.31103c-0.92126,-0.88582 -1.38189,-2.55118 -1.38189,-4.99606c0,-2.48031 0.49607,-4.1811 1.41733,-5.06693c0.95669,-0.88583 2.65748,-1.34646 5.20866,-1.34646c2.48031,0 4.21653,0.4252 5.13779,1.31103c0.92126,0.88582 1.38189,2.55118 1.38189,4.99606l5.68434e-14,0Z" style="fill:#2b2a29;fill-rule:nonzero;"/><path id="3" d="M306.921,103.605c0,0.49606 -0.17716,0.88582 -0.49606,1.16929c-0.35433,0.24803 -0.81496,0.4252 -1.41732,0.56693c-0.60237,0.14173 -1.45276,0.2126 -2.62205,0.2126c-1.09843,0 -1.98425,-0.0709 -2.65748,-0.2126c-0.67323,-0.14173 -1.13386,-0.3189 -1.45276,-0.56693c-0.31889,-0.24803 -0.46063,-0.6378 -0.46063,-1.16929l0,-5.77559c-2.51574,2.69291 -5.31496,4.78346 -8.43307,6.27165c-3.11811,1.45276 -6.41338,2.19685 -9.85039,2.19685c-3.04724,0 -5.81102,-0.38976 -8.25591,-1.16929c-2.44488,-0.77953 -4.57086,-1.94882 -6.27165,-3.43701c-1.73622,-1.48819 -3.08268,-3.36614 -4.03937,-5.52756c-0.95669,-2.19685 -1.45276,-4.67716 -1.45276,-7.44094c0,-3.25984 0.67323,-6.09449 1.98426,-8.4685c1.31102,-2.40945 3.22441,-4.3937 5.70472,-5.98819c2.48032,-1.59449 5.52756,-2.79921 9.1063,-3.57874c3.57874,-0.77953 7.65354,-1.16929 12.1181,-1.16929l7.97244,0l0,-4.5c0,-2.19685 -0.24803,-4.18111 -0.70866,-5.91733c-0.49606,-1.70078 -1.24016,-3.11811 -2.26772,-4.2874c-1.06299,-1.13386 -2.40945,-1.98425 -4.0748,-2.55118c-1.66535,-0.60236 -3.72047,-0.88583 -6.16535,-0.88583c-2.62205,0 -4.96063,0.3189 -7.01575,0.9567c-2.09055,0.63779 -3.89764,1.31102 -5.4567,2.09055c-1.55905,0.77953 -2.87007,1.45275 -3.93307,2.09055c-1.02756,0.63779 -1.80708,0.95669 -2.33858,0.95669c-0.35433,0 -0.67323,-0.0709 -0.88583,-0.24803c-0.24803,-0.14173 -0.49606,-0.4252 -0.67322,-0.77953c-0.2126,-0.31889 -0.3189,-0.77952 -0.4252,-1.27559c-0.0709,-0.53149 -0.14173,-1.13386 -0.14173,-1.77165c0,-1.06299 0.0709,-1.91339 0.2126,-2.51575c0.14173,-0.60236 0.53149,-1.20472 1.09842,-1.73622c0.56693,-0.5315 1.59449,-1.20472 2.97638,-1.98425c1.41732,-0.7441 3.04724,-1.45276 4.88976,-2.09055c1.80709,-0.60236 3.82677,-1.13386 6.02362,-1.55906c2.16142,-0.42519 4.3937,-0.60236 6.59056,-0.60236c4.14566,0 7.65354,0.46063 10.5945,1.41732c2.90551,0.9567 5.2441,2.33859 7.05118,4.14567c1.80709,1.80709 3.08268,4.07481 3.89764,6.76772c0.81496,2.69291 1.24016,5.84646 1.24016,9.4252l0,38.9764l0.03543,-0.03543ZM296.398,77.1365l-9.03543,0c-2.90551,0 -5.42126,0.24803 -7.54725,0.74409c-2.12598,0.49606 -3.89763,1.24016 -5.31496,2.19685c-1.41732,0.95669 -2.44488,2.09055 -3.11811,3.47244c-0.67323,1.34646 -0.99212,2.90551 -0.99212,4.67717c0,3.01181 0.95669,5.38582 2.83464,7.15748c1.91339,1.77165 4.57087,2.65748 8.00788,2.65748c2.76378,0 5.35039,-0.70866 7.72441,-2.12599c2.37401,-1.41732 4.85433,-3.57874 7.47637,-6.48425l0,-12.2953l-0.03543,-1.13687e-13Z" style="fill:#2b2a29;fill-rule:nonzero;"/><path id="path15" d="M507.331,102.684c0,1.24015 -0.0709,2.23228 -0.24804,2.94094c-0.14173,0.70866 -0.42519,1.27559 -0.77952,1.59449c-0.3189,0.35433 -0.8504,0.67323 -1.52362,0.95669c-0.67323,0.3189 -1.45276,0.5315 -2.33859,0.7441c-0.88582,0.2126 -1.80708,0.35433 -2.79921,0.49606c-0.99213,0.14173 -1.94882,0.2126 -2.94094,0.2126c-3.01182,0 -5.563,-0.38976 -7.68898,-1.16929c-2.12599,-0.77953 -3.86221,-1.98425 -5.2441,-3.57874c-1.34645,-1.59449 -2.33858,-3.64961 -2.97637,-6.09449c-0.60237,-2.44488 -0.92126,-5.35039 -0.92126,-8.6811l0,-33.6968l-8.11418,0c-0.63779,0 -1.16929,-0.35433 -1.55905,-1.02756c-0.38976,-0.67323 -0.56693,-1.80709 -0.56693,-3.36614c0,-0.81496 0.0354,-1.48819 0.14173,-2.05512c0.1063,-0.56693 0.24803,-1.02756 0.4252,-1.41732c0.17716,-0.35433 0.4252,-0.60236 0.67323,-0.77953c0.28346,-0.14173 0.60236,-0.2126 0.95669,-0.2126l8.07874,0l0,-13.7126c0,-0.31889 0.0709,-0.60236 0.2126,-0.81496c0.14173,-0.24803 0.4252,-0.49606 0.85039,-0.67322c0.38977,-0.2126 0.9567,-0.3189 1.62992,-0.4252c0.67323,-0.0709 1.52363,-0.14173 2.58662,-0.14173c1.06299,0 1.94882,0.0354 2.62204,0.14173c0.70867,0.0709 1.24016,0.2126 1.62993,0.4252c0.38976,0.21259 0.67322,0.42519 0.85039,0.67322c0.17716,0.24804 0.24803,0.5315 0.24803,0.81496l0,13.7126l14.7047,0c0.35433,0 0.63779,0.0709 0.88582,0.2126c0.24803,0.14173 0.49606,0.4252 0.67323,0.77953c0.2126,0.38976 0.3189,0.81496 0.4252,1.41732c0.0709,0.5315 0.14173,1.24016 0.14173,2.05512c0,1.55905 -0.2126,2.65748 -0.56693,3.36614c-0.38976,0.67323 -0.88583,1.02756 -1.52362,1.02756l-14.7047,0l0,32.1378c0,3.96851 0.60237,6.98032 1.73622,8.96457c1.1693,2.01969 3.25985,3.04724 6.27166,3.04724c0.95669,0 1.84252,-0.0709 2.62205,-0.28346c0.77952,-0.2126 1.45275,-0.38976 2.05511,-0.60236c0.60237,-0.2126 1.09843,-0.4252 1.52363,-0.60236c0.42519,-0.2126 0.81496,-0.28347 1.13385,-0.28347c0.2126,0 0.4252,0.0354 0.60237,0.14173c0.17716,0.1063 0.31889,0.3189 0.42519,0.60237c0.1063,0.31889 0.2126,0.70866 0.28347,1.24015c0.0709,0.49606 0.14173,1.16929 0.14173,1.91339l-0.03543,0Z" style="fill:#2b2a29;fill-rule:nonzero;"/><path id="path17" d="M569.126,75.542c0,1.66535 -0.4252,2.83464 -1.24016,3.57874c-0.81496,0.70866 -1.80708,1.06299 -2.87008,1.06299l-37.9488,0c0,3.22441 0.31889,6.09449 0.95669,8.6811c0.63779,2.58662 1.70079,4.78347 3.22441,6.62599c1.48819,1.84252 3.43701,3.25984 5.81102,4.21653c2.40945,0.99213 5.3504,1.48819 8.82284,1.48819c2.72834,0 5.20866,-0.2126 7.29921,-0.67323c2.16142,-0.4252 4.00394,-0.95669 5.56299,-1.48819c1.55906,-0.53149 2.83465,-1.06299 3.86221,-1.48819c0.99212,-0.46063 1.73622,-0.67322 2.26771,-0.67322c0.3189,0 0.56693,0.0709 0.81496,0.21259c0.2126,0.14174 0.4252,0.38977 0.5315,0.67323c0.14173,0.28347 0.24803,0.70866 0.3189,1.24016c0.0709,0.5315 0.0709,1.16929 0.0709,1.94882c0,0.53149 -0.0354,1.02756 -0.0709,1.45275c-0.0354,0.38977 -0.0709,0.77953 -0.14174,1.06299c-0.0709,0.3189 -0.17716,0.60237 -0.31889,0.88583c-0.14174,0.24803 -0.3189,0.49606 -0.56693,0.70866c-0.24803,0.24803 -0.9567,0.60237 -2.09055,1.13386c-1.1693,0.5315 -2.65748,1.06299 -4.5,1.59449c-1.84252,0.49606 -3.96851,0.95669 -6.37796,1.34646c-2.40945,0.42519 -4.96063,0.60236 -7.72441,0.60236c-4.74803,0 -8.8937,-0.67323 -12.4724,-1.98425c-3.57874,-1.31103 -6.55511,-3.29528 -9,-5.88189c-2.44488,-2.62205 -4.2874,-5.88189 -5.49212,-9.85039c-1.24016,-3.93308 -1.87795,-8.50394 -1.87795,-13.748c0,-4.96063 0.63779,-9.42519 1.91338,-13.3937c1.27559,-3.93307 3.11811,-7.29921 5.52756,-10.063c2.40945,-2.76378 5.35039,-4.85433 8.75197,-6.34252c3.40157,-1.45275 7.26378,-2.19685 11.4803,-2.19685c4.53544,0 8.39764,0.70866 11.5512,2.19685c3.18898,1.45276 5.81103,3.40158 7.86615,5.88189c2.01968,2.44488 3.5433,5.3504 4.5,8.6811c0.95669,3.29528 1.45275,6.87402 1.45275,10.6299l0,1.91338l0.1063,-0.03543ZM558.496,72.4239c0.14173,-5.56299 -1.09843,-9.95669 -3.68504,-13.1102c-2.62205,-3.18897 -6.44882,-4.74803 -11.5512,-4.74803c-2.62205,0 -4.9252,0.49606 -6.90945,1.45276c-1.98425,0.99212 -3.61417,2.30315 -4.96063,3.93307c-1.34646,1.62992 -2.37401,3.5433 -3.08268,5.66929c-0.70866,2.16142 -1.13385,4.42913 -1.24015,6.80315l31.4291,-1.13687e-13Z" style="fill:#2b2a29;fill-rule:nonzero;"/><path id="path19" d="M626.882,98.0774c0,0.70866 -0.0354,1.34646 -0.0709,1.87795c-0.0354,0.5315 -0.1063,0.99213 -0.2126,1.34646c-0.1063,0.38976 -0.24803,0.67323 -0.38976,0.95669c-0.14174,0.28346 -0.49607,0.70866 -1.02756,1.24016c-0.5315,0.53149 -1.45276,1.20472 -2.72835,2.01968c-1.27559,0.77953 -2.72835,1.52362 -4.32283,2.12599c-1.62993,0.63779 -3.36615,1.13386 -5.2441,1.52362c-1.87795,0.38976 -3.82677,0.60236 -5.84645,0.60236c-4.14567,0 -7.83071,-0.67323 -11.0551,-2.05512c-3.22441,-1.34645 -5.91733,-3.36614 -8.07874,-5.98819c-2.16143,-2.62204 -3.82678,-5.88188 -4.96064,-9.67322c-1.13386,-3.82677 -1.70079,-8.22047 -1.70079,-13.252c0,-5.66929 0.70866,-10.559 2.09055,-14.6693c1.41732,-4.0748 3.29529,-7.44095 5.70474,-10.0276c2.44488,-2.62205 5.27952,-4.53543 8.53937,-5.81102c3.29527,-1.24016 6.83858,-1.87796 10.6299,-1.87796c1.84252,0 3.61417,0.17717 5.35039,0.5315c1.73622,0.3189 3.33071,0.77953 4.78346,1.34646c1.45276,0.56693 2.76378,1.20472 3.86221,1.94882c1.13386,0.70866 1.98425,1.34645 2.48031,1.87795c0.5315,0.53149 0.88583,0.95669 1.063,1.24016c0.17716,0.31889 0.35433,0.67322 0.49606,1.06299c0.1063,0.38976 0.2126,0.85039 0.24803,1.38189c0.0354,0.49606 0.0709,1.16929 0.0709,1.91338c0,1.66536 -0.2126,2.83465 -0.56693,3.50788c-0.38977,0.67323 -0.8504,0.99212 -1.41733,0.99212c-0.63779,0 -1.38188,-0.35433 -2.19685,-1.06299c-0.81496,-0.70866 -1.87795,-1.48819 -3.18897,-2.33858c-1.27559,-0.85039 -2.83465,-1.62992 -4.67717,-2.33858c-1.80708,-0.70866 -3.9685,-1.063 -6.44882,-1.063c-5.10236,0 -9.03543,1.94882 -11.7283,5.88189c-2.72835,3.89764 -4.0748,9.56693 -4.0748,17.0079c0,3.68504 0.35433,6.98031 1.06299,9.77952c0.70866,2.79922 1.73622,5.1378 3.11811,7.01575c1.34645,1.87796 3.04724,3.25985 5.03149,4.1811c1.98426,0.92126 4.2874,1.38189 6.83859,1.38189c2.44488,0 4.60629,-0.38976 6.44881,-1.16929c1.84252,-0.77952 3.40158,-1.62992 4.78347,-2.55118c1.34646,-0.92126 2.48031,-1.73622 3.40157,-2.48031c0.92126,-0.77953 1.62992,-1.13386 2.16142,-1.13386c0.28347,0 0.5315,0.0709 0.77953,0.24803c0.2126,0.17717 0.38976,0.46063 0.53149,0.85039c0.14174,0.4252 0.24804,0.92126 0.3189,1.55906c0.0709,0.60236 0.0709,1.34646 0.0709,2.19685l0.07084,-0.1063Z" style="fill:#2b2a29;fill-rule:nonzero;"/><path id="path21" d="M683.327,107.042c0,0.49607 -0.17716,0.88583 -0.49606,1.1693c-0.35433,0.24803 -0.81496,0.42519 -1.41732,0.56693c-0.60236,0.14173 -1.45276,0.21259 -2.62205,0.21259c-1.09842,0 -1.98425,-0.0709 -2.65748,-0.21259c-0.67323,-0.14174 -1.13386,-0.3189 -1.45275,-0.56693c-0.3189,-0.24804 -0.46063,-0.6378 -0.46063,-1.1693l0,-5.77559c-2.51575,2.69292 -5.31496,4.78347 -8.43307,6.27166c-3.11811,1.45275 -6.41339,2.19685 -9.8504,2.19685c-3.04724,0 -5.81102,-0.38977 -8.2559,-1.16929c-2.44489,-0.77953 -4.57087,-1.94882 -6.27166,-3.43701c-1.73622,-1.48819 -3.08267,-3.36614 -4.03937,-5.52756c-0.95669,-2.19685 -1.45275,-4.67716 -1.45275,-7.44094c0,-3.25984 0.67323,-6.09449 1.98425,-8.46851c1.31102,-2.40944 3.22441,-4.3937 5.70472,-5.98818c2.48032,-1.59449 5.52756,-2.79922 9.1063,-3.57874c3.57874,-0.77953 7.65355,-1.1693 12.1181,-1.1693l7.97244,0l0,-4.5c0,-2.19685 -0.24803,-4.1811 -0.70866,-5.91732c-0.49606,-1.70079 -1.24016,-3.11811 -2.26771,-4.2874c-1.063,-1.13386 -2.40945,-1.98425 -4.07481,-2.55118c-1.66535,-0.60236 -3.72047,-0.88583 -6.16535,-0.88583c-2.62205,0 -4.96063,0.3189 -7.01575,0.9567c-2.09055,0.63779 -3.89764,1.31102 -5.45669,2.09055c-1.55906,0.77952 -2.87008,1.45275 -3.93307,2.09055c-1.02756,0.63779 -1.80709,0.95669 -2.33859,0.95669c-0.35433,0 -0.67322,-0.0709 -0.88582,-0.24803c-0.24803,-0.14173 -0.49607,-0.4252 -0.67323,-0.77953c-0.2126,-0.3189 -0.3189,-0.77953 -0.4252,-1.27559c-0.0709,-0.5315 -0.14173,-1.13386 -0.14173,-1.77165c0,-1.06299 0.0709,-1.91339 0.2126,-2.51575c0.14173,-0.60236 0.53149,-1.20473 1.09842,-1.73622c0.56693,-0.5315 1.59449,-1.20473 2.97638,-1.98425c1.41732,-0.7441 3.04725,-1.45276 4.88976,-2.09055c1.80709,-0.60237 3.82678,-1.13386 6.02363,-1.55906c2.16141,-0.4252 4.3937,-0.60236 6.59055,-0.60236c4.14567,0 7.65354,0.46063 10.5945,1.41732c2.90551,0.95669 5.24409,2.33858 7.05118,4.14567c1.80708,1.80709 3.08267,4.0748 3.89763,6.76772c0.81497,2.69291 1.24016,5.84645 1.24016,9.42519l0,38.9764l0.03543,-0.03544ZM672.803,80.5735l-9.03543,0c-2.90551,0 -5.42126,0.24804 -7.54724,0.7441c-2.12599,0.49606 -3.89764,1.24016 -5.31496,2.19685c-1.41733,0.95669 -2.44489,2.09055 -3.11811,3.47244c-0.67323,1.34646 -0.99213,2.90551 -0.99213,4.67716c0,3.01182 0.95669,5.38583 2.83465,7.15749c1.91338,1.77165 4.57086,2.65747 8.00787,2.65747c2.76378,0 5.35039,-0.70866 7.72441,-2.12598c2.37401,-1.41732 4.85433,-3.57874 7.47638,-6.48425l0,-12.2953l-0.03544,0Z" style="fill:#2b2a29;fill-rule:nonzero;"/><path id="polygon23" d="M400.748,83.4435l32.4921,-19.063l-32.4921,-19.0984l-32.5276,-19.063l0,76.3228l32.5276,-19.0984Z" style="fill:#2b2a29;"/><path id="path27" d="M389.905,128.766l-0.415212,-0.00130475l-0.414794,-0.0039411l-0.414234,-0.00655322l-0.413551,-0.00917635l-0.412932,-0.0117618l-0.412407,-0.0143664l-0.411771,-0.016952l-0.411177,-0.0195314l-0.4105,-0.0221077l-0.409876,-0.0246689l-0.40924,-0.0272266l-0.408644,-0.0297849l-0.40797,-0.0323345l-0.40724,-0.0348625l-0.406466,-0.0373867l-0.405898,-0.0399085l-0.405184,-0.0424319l-0.404423,-0.0449276l-0.403765,-0.0474338l-0.402995,-0.0499281l-0.402234,-0.052398l-0.401517,-0.0548873l-0.400691,-0.0573422l-0.399978,-0.059808l-0.399203,-0.0622654l-0.39832,-0.0646931l-0.397609,-0.0671361l-0.396881,-0.0695863l-0.395889,-0.071981l-0.39513,-0.0743887l-0.394395,-0.0768278l-0.393451,-0.0792011l-0.392693,-0.0816119l-0.391698,-0.0839713l-0.390852,-0.0863387l-0.389998,-0.088716l-0.38917,-0.0910816l-0.388192,-0.0934237l-0.387238,-0.09574l-0.386533,-0.0981314l-0.385428,-0.100422l-0.384441,-0.10271l-0.383657,-0.105065l-0.382606,-0.107342l-0.381718,-0.109647l-0.380752,-0.111947l-0.379718,-0.114197l-0.378785,-0.11649l-0.377666,-0.118708l-0.376667,-0.120955l-0.375868,-0.123262l-0.374786,-0.125499l-0.37364,-0.127676l-0.372683,-0.129929l-0.3716,-0.132126l-0.370588,-0.134345l-0.369411,-0.136503l-0.368399,-0.138697l-0.367458,-0.140941l-0.366252,-0.143071l-0.365215,-0.145253l-0.363983,-0.147367l-0.362851,-0.149486l-0.36195,-0.151721l-0.360716,-0.153819l-0.359524,-0.155908l-0.358517,-0.158088l-0.357174,-0.160121l-0.356076,-0.162224l-0.354939,-0.164346l-0.353743,-0.166404l-0.352694,-0.168557l-0.351292,-0.170527l-0.350155,-0.172599l-0.34908,-0.174729l-0.347741,-0.176714l-0.346492,-0.17873l-0.345306,-0.180779l-0.344028,-0.182781l-0.342841,-0.184818l-0.341452,-0.186759l-0.340349,-0.188817l-0.339028,-0.190809l-0.337639,-0.192696l-0.336568,-0.194805l-0.335167,-0.196711l-0.333827,-0.198641l-0.332453,-0.200551l-0.331216,-0.202527l-0.329949,-0.204505l-0.328566,-0.206398l-0.327182,-0.208289l-0.325794,-0.210165l-0.324532,-0.212122l-0.323199,-0.214041l-0.321789,-0.215905l-0.320277,-0.217691l-0.318968,-0.219597l-0.317609,-0.221492l-0.316172,-0.223314l-0.314918,-0.225272l-0.313359,-0.22703l-0.311719,-0.228682l-0.310609,-0.230725l-0.309167,-0.232573l-0.307549,-0.234237l-0.306128,-0.236069l-0.304582,-0.237785l-0.303176,-0.23961l-0.301855,-0.241511l-0.30025,-0.243207l-0.298667,-0.244877l-0.297254,-0.246702l-0.2958,-0.248495l-0.294212,-0.250183l-0.292584,-0.251814l-0.291167,-0.253624l-0.289686,-0.255405l-0.287948,-0.256942l-0.28653,-0.258742l-0.28494,-0.260433l-0.283326,-0.262053l-0.281856,-0.263842l-0.28021,-0.265455l-0.278546,-0.267049l-0.276963,-0.268708l-0.275463,-0.27046l-0.273718,-0.271984l-0.272221,-0.273716l-0.270563,-0.275352l-0.268709,-0.276722l-0.267236,-0.278497l-0.265638,-0.280169l-0.2639,-0.281683l-0.262186,-0.28322l-0.260506,-0.284783l-0.258928,-0.28647l-0.257225,-0.288037l-0.255352,-0.289397l-0.253722,-0.291004l-0.252105,-0.292673l-0.250428,-0.294261l-0.248505,-0.29559l-0.246741,-0.297032l-0.24521,-0.298816l-0.243264,-0.300103l-0.241584,-0.301666l-0.239787,-0.303153l-0.237909,-0.304472l-0.236351,-0.306235l-0.234424,-0.307562l-0.232521,-0.308851l-0.23087,-0.310509l-0.229049,-0.311963l-0.227163,-0.313313l-0.225238,-0.31461l-0.223561,-0.316227l-0.221661,-0.317616l-0.219738,-0.318885l-0.217973,-0.320444l-0.216037,-0.321742l-0.214101,-0.323038l-0.212267,-0.324473l-0.210306,-0.325754l-0.208539,-0.327285l-0.206628,-0.3287l-0.204485,-0.329661l-0.202789,-0.331338l-0.200725,-0.332519l-0.19878,-0.333764l-0.196938,-0.335312l-0.194819,-0.336331l-0.192999,-0.337862l-0.190926,-0.339033l-0.188917,-0.340212l-0.187031,-0.341705l-0.18496,-0.342843l-0.182901,-0.344002l-0.180921,-0.345297l-0.178928,-0.346608l-0.176933,-0.347915l-0.174814,-0.349018l-0.172731,-0.350128l-0.170785,-0.35157l-0.168642,-0.35264l-0.166535,-0.35373l-0.164477,-0.354965l-0.162428,-0.356215l-0.160353,-0.357459l-0.158187,-0.358494l-0.156102,-0.359699l-0.154,-0.360918l-0.15174,-0.36176l-0.149654,-0.362945l-0.147593,-0.364306l-0.145387,-0.365306l-0.143256,-0.366486l-0.141012,-0.367434l-0.138807,-0.368398l-0.136727,-0.369767l-0.134459,-0.370688l-0.132231,-0.37163l-0.130113,-0.372957l-0.127823,-0.373852l-0.12557,-0.374766l-0.123362,-0.375889l-0.121138,-0.376958l-0.118893,-0.378025l-0.116596,-0.378925l-0.11429,-0.379785l-0.112103,-0.381029l-0.109752,-0.381885l-0.107448,-0.382718l-0.105209,-0.383951l-0.102859,-0.384784l-0.100503,-0.385575l-0.0982073,-0.386581l-0.0958849,-0.387586l-0.0935124,-0.388375l-0.0911859,-0.389352l-0.0888309,-0.3903l-0.0864378,-0.391071l-0.084087,-0.392033l-0.0817056,-0.39296l-0.0792865,-0.39369l-0.0768707,-0.394428l-0.074528,-0.395538l-0.0720589,-0.39623l-0.0696433,-0.396928l-0.0672488,-0.398025l-0.0647834,-0.398707l-0.0623494,-0.399566l-0.0598611,-0.40022l-0.0573995,-0.400872l-0.0549711,-0.401924l-0.0524853,-0.402755l-0.0499493,-0.403157l-0.0474914,-0.403985l-0.0449819,-0.40478l-0.0424756,-0.405378l-0.039986,-0.406361l-0.0374312,-0.406936l-0.034903,-0.407503l-0.0323838,-0.408463l-0.0298068,-0.409002l-0.0272432,-0.409332l-0.0247214,-0.410265l-0.0221466,-0.411194l-0.0195389,-0.411491l-0.0169698,-0.411981l-0.0143922,-0.412879l-0.0117748,-0.413355l-0.0091893,-0.414027l-0.00655007,-0.41448l-0.00396533,-0.415136l-0.00130518,-0.415801l0.00130476,-0.415208l0.00394111,-0.414771l0.00655475,-0.414337l0.00918671,-0.413471l0.0117463,-0.412801l0.0143701,-0.412543l0.0169566,-0.41185l0.0195427,-0.411164l0.0221034,-0.410451l0.0246632,-0.409736l0.0272117,-0.409224l0.0298021,-0.408899l0.0323479,-0.407949l0.0348404,-0.406989l0.0373871,-0.406644l0.0399222,-0.405865l0.0424069,-0.40509l0.0449384,-0.404496l0.0474466,-0.403907l0.0499311,-0.402887l0.052364,-0.402075l0.054902,-0.40165l0.057361,-0.400823l0.0598193,-0.399969l0.0622478,-0.399097l0.0646817,-0.398257l0.0671207,-0.397573l0.0696224,-0.397106l0.0720176,-0.396002l0.0743573,-0.394896l0.0767753,-0.39419l0.0792341,-0.393678l0.0816391,-0.392751l0.0839493,-0.391614l0.0863437,-0.390862l0.088693,-0.389903l0.0910664,-0.389147l0.0934665,-0.388382l0.0957399,-0.387187l0.0980869,-0.386395l0.100464,-0.385602l0.102706,-0.384386l0.105037,-0.383593l0.107387,-0.382752l0.109651,-0.381701l0.111926,-0.380681l0.114168,-0.379619l0.11647,-0.378762l0.118779,-0.377903l0.120954,-0.376612l0.123208,-0.375727l0.125516,-0.374835l0.127703,-0.373725l0.129917,-0.372617l0.132082,-0.371509l0.134412,-0.370775l0.136522,-0.369428l0.138658,-0.368292l0.140897,-0.367348l0.143098,-0.366359l0.145261,-0.365205l0.14737,-0.364027l0.149579,-0.363035l0.151609,-0.361655l0.153764,-0.360638l0.155957,-0.359635l0.158114,-0.358592l0.160138,-0.35719l0.162171,-0.35597l0.164411,-0.355084l0.166464,-0.353839l0.168431,-0.352408l0.170518,-0.351328l0.172661,-0.350248l0.174656,-0.34896l0.176769,-0.347854l0.178775,-0.346572l0.180774,-0.345274l0.182747,-0.343968l0.184805,-0.342815l0.186778,-0.341496l0.188824,-0.340348l0.190796,-0.339011l0.192717,-0.337669l0.194751,-0.336471l0.196678,-0.335129l0.198702,-0.333935l0.200607,-0.332538l0.202508,-0.331172l0.2045,-0.329942l0.206394,-0.328549l0.208262,-0.327146l0.21013,-0.32574l0.212082,-0.324491l0.214143,-0.32336l0.2159,-0.321762l0.217631,-0.320202l0.219654,-0.319054l0.221477,-0.317577l0.223287,-0.316145l0.225312,-0.314967l0.227013,-0.313334l0.228788,-0.311866l0.230675,-0.310506l0.23244,-0.309013l0.234216,-0.307523l0.236063,-0.306153l0.237935,-0.304772l0.239675,-0.303246l0.241405,-0.301699l0.243131,-0.300178l0.244954,-0.298761l0.246766,-0.297329l0.248395,-0.295664l0.250158,-0.29421l0.251971,-0.292751l0.25355,-0.291071l0.255314,-0.289591l0.256967,-0.287985l0.258742,-0.286532l0.260518,-0.28504l0.262036,-0.283288l0.263762,-0.281784l0.265513,-0.280268l0.267129,-0.278629l0.268648,-0.276883l0.270313,-0.275329l0.272158,-0.273902l0.273652,-0.272133l0.275309,-0.270547l0.276908,-0.268873l0.278341,-0.267077l0.280106,-0.265595l0.281791,-0.264l0.283224,-0.262186l0.284853,-0.260569l0.286389,-0.258838l0.287884,-0.257107l0.289522,-0.255473l0.291126,-0.253821l0.292645,-0.252066l0.294015,-0.250218l0.295697,-0.248627l0.297184,-0.246845l0.298647,-0.245076l0.300227,-0.243372l0.30155,-0.241475l0.303098,-0.239773l0.30476,-0.238126l0.3061,-0.236223l0.307499,-0.234395l0.309021,-0.232636l0.310324,-0.230723l0.311911,-0.229031l0.31344,-0.22725l0.31471,-0.22531l0.316086,-0.22344l0.317552,-0.221642l0.319031,-0.219826l0.320261,-0.21785l0.321711,-0.216034l0.323266,-0.214258l0.324506,-0.212269l0.32573,-0.210293l0.327215,-0.208479l0.328554,-0.206549l0.329834,-0.204601l0.331237,-0.202711l0.332527,-0.200754l0.333884,-0.198833l0.335185,-0.196869l0.336441,-0.194884l0.337771,-0.192937l0.339048,-0.190951l0.340281,-0.188943l0.341606,-0.186982l0.342839,-0.184958l0.344036,-0.182926l0.345346,-0.180943l0.346643,-0.178944l0.34785,-0.176891l0.348957,-0.174793l0.350194,-0.172764l0.35155,-0.170774l0.352658,-0.168653l0.353782,-0.166558l0.355026,-0.164499l0.356177,-0.162402l0.357308,-0.160284l0.358488,-0.158196l0.359714,-0.156106l0.360822,-0.153968l0.361937,-0.151825l0.363093,-0.149701l0.364202,-0.147541l0.365194,-0.145345l0.366398,-0.143226l0.367488,-0.141045l0.368523,-0.138853l0.369654,-0.13668l0.370694,-0.134475l0.371791,-0.132282l0.37283,-0.130061l0.373839,-0.127829l0.374843,-0.12559l0.375898,-0.123367l0.376975,-0.121135l0.377896,-0.118852l0.37891,-0.1166l0.379952,-0.11434l0.380913,-0.112056l0.381876,-0.109764l0.382857,-0.107476l0.383813,-0.105167l0.384724,-0.102852l0.38565,-0.100526l0.386589,-0.0982093l0.387574,-0.0958819l0.388438,-0.0935299l0.389393,-0.091187l0.390229,-0.0888128l0.391083,-0.0864421l0.392023,-0.0840814l0.39289,-0.0816925l0.393681,-0.0792909l0.394554,-0.0768978l0.395485,-0.0745074l0.396241,-0.072068l0.397008,-0.0696502l0.397983,-0.067234l0.398655,-0.0647762l0.399453,-0.0623313l0.400248,-0.0598794l0.401056,-0.0574212l0.401794,-0.0549445l0.402538,-0.052469l0.403376,-0.0499905l0.404054,-0.0474857l0.404748,-0.0449875l0.405544,-0.0424809l0.40617,-0.0399591l0.406901,-0.0374377l0.40759,-0.0349071l0.408304,-0.0323677l0.408942,-0.029819l0.409611,-0.0272653l0.410275,-0.0247039l0.41092,-0.0221342l0.411537,-0.0195577l0.412181,-0.0169728l0.412776,-0.0143824l0.413387,-0.011783l0.413979,-0.00917738l0.414578,-0.00656407l0.415159,-0.00394341l0.415696,-0.00131662l0.415299,0.00131444l0.414704,0.00393915l0.414143,0.00655571l0.413608,0.00916551l0.412959,0.011768l0.412412,0.0143633l0.411773,0.0169526l0.411144,0.0195322l0.410544,0.0221066l0.409871,0.0246709l0.409293,0.0272314l0.408607,0.0297854l0.407899,0.0323258l0.407221,0.0348608l0.406578,0.0373916l0.405841,0.039911l0.405208,0.0424276l0.404431,0.044934l0.403738,0.0474301l0.402999,0.0499253l0.402197,0.0523987l0.401504,0.0548778l0.40078,0.0573533l0.399978,0.0598111l0.399171,0.0622588l0.398365,0.0646996l0.397628,0.0671433l0.396778,0.0695697l0.395967,0.0719864l0.395181,0.0744094l0.394312,0.0768092l0.393439,0.0791993l0.392661,0.0816013l0.39175,0.0839791l0.390877,0.0863467l0.390033,0.088724l0.389116,0.0910756l0.388195,0.0934205l0.38725,0.0957502l0.38642,0.0981003l0.38545,0.10042l0.384507,0.102728l0.383623,0.105054l0.382757,0.10738l0.3816,0.10963l0.380662,0.111905l0.379856,0.114242l0.378688,0.116462l0.377696,0.118711l0.376765,0.120989l0.375847,0.123262l0.374758,0.12549l0.373568,0.127657l0.372646,0.129907l0.371679,0.132152l0.370577,0.134342l0.369477,0.136524l0.368508,0.138747l0.367346,0.140908l0.366093,0.143006l0.365127,0.145207l0.36427,0.147466l0.362908,0.149534l0.361788,0.15165l0.360736,0.153828l0.359572,0.155931l0.358355,0.158023l0.357174,0.160101l0.356292,0.162326l0.354876,0.164327l0.353682,0.166374l0.352753,0.168583l0.351336,0.170554l0.350091,0.172575l0.348992,0.174682l0.347742,0.176709l0.346445,0.178702l0.34535,0.180791l0.34421,0.182877l0.342715,0.184765l0.341436,0.186735l0.340472,0.188895l0.33891,0.190745l0.337641,0.192692l0.336645,0.19485l0.335057,0.196654l0.333738,0.198575l0.33276,0.200725l0.331137,0.20251l0.329797,0.204394l0.328564,0.2064l0.327185,0.208275l0.325957,0.210269l0.324529,0.212129l0.323099,0.213977l0.321677,0.215823l0.320441,0.217787l0.31916,0.219746l0.317483,0.221424l0.316059,0.223235l0.314776,0.225172l0.313286,0.226953l0.312025,0.228892l0.310717,0.23083l0.308957,0.232423l0.307484,0.23418l0.306165,0.23609l0.304625,0.237817l0.303327,0.23973l0.30173,0.241438l0.300208,0.243154l0.298626,0.244857l0.297304,0.246721l0.295901,0.248599l0.294103,0.250092l0.292513,0.251752l0.291151,0.253598l0.289757,0.255458l0.288113,0.257091l0.286483,0.258724l0.284861,0.260357l0.283222,0.261965l0.281821,0.263784l0.280364,0.265596l0.278672,0.267177l0.276785,0.268558l0.27537,0.270342l0.273863,0.272125l0.272193,0.273695l0.270465,0.275243l0.269009,0.277015l0.267206,0.278521l0.265333,0.279835l0.264061,0.281837l0.262259,0.28332l0.260311,0.284575l0.259026,0.28655l0.257213,0.288047l0.255266,0.289275l0.253918,0.291225l0.252105,0.292699l0.250111,0.293892l0.248761,0.295835l0.246888,0.297268l0.244896,0.298428l0.243299,0.300118l0.241692,0.301797l0.239808,0.303183l0.237985,0.304573l0.236122,0.305965l0.234503,0.307606l0.232795,0.309251l0.230721,0.310342l0.228839,0.311673l0.227187,0.313312l0.225466,0.314925l0.223337,0.315952l0.221683,0.317575l0.219911,0.319169l0.217991,0.320468l0.215816,0.321454l0.214159,0.323049l0.212334,0.324621l0.210416,0.325882l0.208397,0.327141l0.206479,0.328383l0.204865,0.330274l0.202642,0.331173l0.200675,0.332394l0.198852,0.333931l0.196842,0.335148l0.194818,0.336334l0.192796,0.337505l0.191164,0.339362l0.189054,0.34055l0.186847,0.341365l0.184782,0.342513l0.183133,0.344343l0.180968,0.345481l0.178774,0.346264l0.177016,0.348077l0.174902,0.349193l0.172614,0.349941l0.170724,0.351389l0.168733,0.352829l0.16662,0.35391l0.164457,0.354976l0.162346,0.356037l0.160348,0.357449l0.158187,0.358494l0.156026,0.359525l0.154024,0.36092l0.15181,0.361926l0.149654,0.362942l0.147597,0.364315l0.145387,0.365306l0.143178,0.366288l0.141116,0.367638l0.138854,0.368595l0.13665,0.369555l0.134532,0.370889l0.132137,0.371438l0.130068,0.372755l0.127892,0.374051l0.125638,0.374972l0.123332,0.375874l0.121078,0.376767l0.118896,0.378036l0.116594,0.378917l0.11429,0.379785l0.112103,0.381029l0.109752,0.381885l0.107448,0.382718l0.105209,0.383951l0.102856,0.38477l0.100507,0.385582l0.0981592,0.386398l0.0959067,0.387573l0.0936071,0.388768l0.0911134,0.389144l0.0888613,0.390323l0.0864126,0.391077l0.0840658,0.391817l0.0817907,0.393369l0.0792615,0.39369l0.0767888,0.394007l0.074555,0.395542l0.0721354,0.396657l0.0696166,0.396919l0.067179,0.397612l0.0648085,0.398707l0.0623816,0.399772l0.059892,0.400427l0.0573448,0.400666l0.0549669,0.40171l0.0524863,0.402755l0.0500001,0.403371l0.0475151,0.404394l0.0449337,0.404579l0.0424538,0.405164l0.039966,0.406164l0.037475,0.407138l0.0348956,0.407711l0.0323674,0.408255l0.0297917,0.408795l0.0272683,0.409331l0.0247464,0.41068l0.0220992,0.410781l0.0195989,0.411697l0.0169281,0.412189l0.0144101,0.412671l0.0117556,0.413562l0.00918014,0.413614l0.00657517,0.41448l0.0039673,0.415342l0.00130518,0.415801l-0.00130541,0.415414l-0.00396425,0.414565l-0.0065264,0.414125l-0.00919124,0.413675l-0.0117462,0.412806l-0.0143773,0.412752l-0.0169818,0.411853l-0.0195131,0.410533l-0.022053,0.410454l-0.0247008,0.410361l-0.0272506,0.409432l-0.029797,0.408484l-0.0322898,0.407534l-0.0348513,0.407409l-0.0374309,0.406841l-0.0399222,0.405871l-0.0424102,0.404875l-0.0448896,0.404289l-0.0474717,0.40412l-0.0499568,0.403094l-0.0523891,0.402075l-0.0548747,0.40145l-0.05736,0.40081l-0.0597871,0.399761l-0.0622253,0.399113l-0.064714,0.398449l-0.0671541,0.397777l-0.0695767,0.396702l-0.0719674,0.396003l-0.0744598,0.395307l-0.0767752,0.39419l-0.0792179,0.393473l-0.0816163,0.392763l-0.0839721,0.391597l-0.086316,0.390857l-0.088767,0.390118l-0.0910188,0.388943l-0.0934177,0.388179l-0.0957648,0.387389l-0.0981632,0.386596l-0.100411,0.3854l-0.102652,0.384185l-0.105066,0.383794l-0.107468,0.382951l-0.109536,0.381303l-0.11196,0.38088l-0.114193,0.379619l-0.116448,0.37877l-0.1188,0.377884l-0.120931,0.376627l-0.123238,0.375737l-0.12548,0.374803l-0.1278,0.373942l-0.129785,0.372232l-0.132123,0.371697l-0.134434,0.370763l-0.136497,0.369434l-0.138765,0.368506l-0.140817,0.367136l-0.143021,0.366164l-0.14524,0.365215l-0.147446,0.364215l-0.149498,0.362839l-0.15167,0.361864l-0.153868,0.360816l-0.155873,0.359444l-0.158038,0.358417l-0.160185,0.357352l-0.162361,0.356335l-0.164352,0.354902l-0.1663,0.353494l-0.168417,0.352427l-0.170685,0.35167l-0.172669,0.350214l-0.174573,0.348801l-0.176692,0.347699l-0.17875,0.346574l-0.180858,0.345433l-0.182735,0.343948l-0.184817,0.342841l-0.186876,0.341673l-0.188749,0.340168l-0.19077,0.339011l-0.192829,0.337823l-0.194662,0.336321l-0.196685,0.335138l-0.198694,0.333923l-0.200509,0.332376l-0.202484,0.331173l-0.204493,0.329931l-0.206484,0.328736l-0.208295,0.327152l-0.210172,0.325845l-0.212248,0.324675l-0.213754,0.322765l-0.216038,0.322043l-0.217877,0.32049l-0.219362,0.318632l-0.221444,0.317559l-0.223391,0.316299l-0.225302,0.314948l-0.227003,0.31333l-0.228693,0.311733l-0.230766,0.310669l-0.232506,0.30906l-0.234277,0.30763l-0.236188,0.30625l-0.237613,0.304361l-0.23964,0.303234l-0.241546,0.301882l-0.243142,0.300182l-0.24491,0.29871l-0.246766,0.297331l-0.248407,0.29568l-0.25017,0.294224l-0.251983,0.292765l-0.253526,0.29104l-0.255338,0.289624l-0.257101,0.288127l-0.258595,0.286341l-0.260408,0.284954l-0.262173,0.283429l-0.263833,0.28186l-0.265427,0.280154l-0.266924,0.278441l-0.268806,0.277065l-0.270572,0.275577l-0.272063,0.273772l-0.273506,0.271999l-0.275284,0.27052l-0.276835,0.268818l-0.278555,0.267292l-0.280056,0.265518l-0.281612,0.263857l-0.283335,0.262292l-0.284789,0.260512l-0.286562,0.25901l-0.288065,0.25723l-0.289192,0.255171l-0.291132,0.253854l-0.292702,0.252098l-0.294062,0.25028l-0.295831,0.24871l-0.296893,0.246603l-0.298756,0.245191l-0.300153,0.243287l-0.301617,0.241572l-0.30323,0.239831l-0.304477,0.237932l-0.306392,0.23645l-0.307408,0.2343l-0.308873,0.232547l-0.310458,0.230819l-0.311848,0.228984l-0.31343,0.227251l-0.314755,0.225342l-0.316217,0.223533l-0.317472,0.221564l-0.318885,0.219743l-0.320346,0.217906l-0.321831,0.216118l-0.323088,0.214118l-0.324448,0.212267l-0.325907,0.210388l-0.327144,0.208444l-0.328633,0.206591l-0.329832,0.204599l-0.331203,0.202683l-0.332512,0.200752l-0.333838,0.198796l-0.335115,0.196846l-0.336663,0.195011l-0.337826,0.192952l-0.338943,0.190885l-0.340249,0.188925l-0.341553,0.186951l-0.342758,0.184923l-0.344099,0.182969l-0.345495,0.181016l-0.346612,0.178917l-0.347596,0.176765l-0.348976,0.174827l-0.350534,0.172925l-0.351434,0.170698l-0.352544,0.168612l-0.353802,0.16656l-0.354862,0.164437l-0.356271,0.162454l-0.357479,0.160362l-0.358579,0.158222l-0.359702,0.156092l-0.360688,0.153901l-0.361893,0.151816l-0.363019,0.149664l-0.364201,0.147563l-0.365387,0.14541l-0.366323,0.143197l-0.367459,0.141031l-0.36854,0.138863l-0.369625,0.136665l-0.370753,0.134507l-0.371786,0.132265l-0.372678,0.130022l-0.374081,0.127913l-0.374796,0.125557l-0.375773,0.123337l-0.37707,0.121162l-0.377864,0.118841l-0.378861,0.116585l-0.37993,0.114341l-0.381061,0.1121l-0.381843,0.109743l-0.382759,0.107456l-0.383879,0.105184l-0.38472,0.102849l-0.385631,0.100523l-0.386589,0.0982076l-0.387593,0.0958912l-0.388542,0.0935482l-0.389345,0.09117l-0.390051,0.0887714l-0.391105,0.0864634l-0.39219,0.0841109l-0.392788,0.0816673l-0.393648,0.0792907l-0.39467,0.0769203l-0.395475,0.0744975l-0.396184,0.0720644l-0.39702,0.0696458l-0.397904,0.0672315l-0.398731,0.0647862l-0.39944,0.0623308l-0.400319,0.0598893l-0.400985,0.057404l-0.401854,0.0549606l-0.402564,0.052458l-0.403228,0.0499823l-0.404152,0.0475007l-0.404803,0.0449865l-0.405408,0.0424635l-0.406125,0.039964l-0.407073,0.0374559l-0.407596,0.0348962l-0.408198,0.0323663l-0.409055,0.0298233l-0.409578,0.0272567l-0.410225,0.0247064l-0.410966,0.0221363l-0.411523,0.0195515l-0.412039,0.0169737l-0.412902,0.014393l-0.413496,0.0117776l-0.413909,0.00917427l-0.414484,0.00656259l-0.41521,0.00395378l-0.4157,0.00130487ZM389.906,115.152l0.329495,-0.00103427l0.328815,-0.0031311l0.328461,-0.00520057l0.327867,-0.00726716l0.3272,-0.00931963l0.326535,-0.0113824l0.326139,-0.0134351l0.325575,-0.0154681l0.324782,-0.0174941l0.324354,-0.0195347l0.323831,-0.0215503l0.323005,-0.0235495l0.322512,-0.0255723l0.321945,-0.0275632l0.321118,-0.0295469l0.320717,-0.0315596l0.320174,-0.0335359l0.319339,-0.0354887l0.318641,-0.0374504l0.318216,-0.0394446l0.317531,-0.0413774l0.316801,-0.0433281l0.31623,-0.0452706l0.315457,-0.0471937l0.314896,-0.049138l0.314166,-0.051046l0.313463,-0.0529641l0.312908,-0.0548907l0.312214,-0.0567905l0.311484,-0.0586758l0.31067,-0.0605489l0.310162,-0.0624744l0.309492,-0.0643487l0.308471,-0.0661562l0.307937,-0.068077l0.307462,-0.069975l0.306549,-0.0717823l0.305731,-0.0736101l0.304971,-0.0754505l0.304356,-0.0773176l0.303604,-0.0791408l0.302896,-0.0809751l0.302028,-0.0827567l0.301349,-0.0846007l0.300645,-0.0864066l0.299627,-0.0881437l0.298959,-0.0899731l0.298319,-0.0918005l0.297516,-0.0935709l0.296511,-0.095276l0.295918,-0.0971267l0.295187,-0.0988877l0.294012,-0.100535l0.293526,-0.102407l0.292618,-0.1041l0.291672,-0.105817l0.291001,-0.107595l0.290107,-0.10931l0.289299,-0.111033l0.288455,-0.112758l0.287502,-0.114415l0.286619,-0.116129l0.285911,-0.117874l0.284968,-0.119546l0.284194,-0.121262l0.283201,-0.122895l0.282254,-0.124544l0.281285,-0.126182l0.280424,-0.127869l0.279674,-0.129597l0.278754,-0.13123l0.277854,-0.13289l0.276894,-0.134492l0.275634,-0.135976l0.274944,-0.13774l0.274255,-0.139468l0.273079,-0.14096l0.271947,-0.142482l0.271094,-0.14415l0.270275,-0.145817l0.269231,-0.147365l0.268286,-0.148967l0.267343,-0.150561l0.266211,-0.152048l0.265035,-0.153521l0.264244,-0.155216l0.263271,-0.156775l0.262168,-0.158282l0.261228,-0.159861l0.26017,-0.161386l0.25903,-0.162835l0.25809,-0.164446l0.256988,-0.165898l0.255927,-0.167438l0.254948,-0.16896l0.253686,-0.170357l0.252742,-0.17192l0.251684,-0.173435l0.250668,-0.174942l0.249404,-0.176302l0.248347,-0.177799l0.247153,-0.179197l0.246126,-0.180725l0.244997,-0.182151l0.243973,-0.183684l0.242919,-0.185147l0.241326,-0.186237l0.240542,-0.18797l0.23927,-0.189243l0.238094,-0.190695l0.237038,-0.19213l0.235647,-0.193397l0.234901,-0.195112l0.233264,-0.196109l0.232243,-0.197665l0.230995,-0.198951l0.229685,-0.200275l0.228927,-0.201996l0.227354,-0.203018l0.225979,-0.204252l0.224963,-0.205786l0.223628,-0.20702l0.222472,-0.208446l0.221239,-0.209754l0.219861,-0.210971l0.218702,-0.212369l0.217375,-0.213613l0.216273,-0.215082l0.214837,-0.216187l0.213359,-0.217306l0.212157,-0.218675l0.21107,-0.220177l0.209687,-0.221321l0.208222,-0.222449l0.206914,-0.223691l0.20562,-0.225001l0.204464,-0.226403l0.202899,-0.227383l0.201603,-0.228674l0.200356,-0.230002l0.198841,-0.231022l0.197505,-0.232284l0.196209,-0.233549l0.194701,-0.234597l0.193408,-0.235895l0.192027,-0.237077l0.190475,-0.238054l0.189141,-0.239334l0.18802,-0.240837l0.186296,-0.241558l0.184878,-0.242764l0.183501,-0.24392l0.181912,-0.244899l0.180746,-0.246376l0.179197,-0.247343l0.177569,-0.248222l0.176151,-0.249412l0.17477,-0.250626l0.173523,-0.25205l0.171769,-0.252666l0.1701,-0.253565l0.169055,-0.255271l0.167232,-0.255814l0.165799,-0.25705l0.164347,-0.258127l0.16265,-0.258949l0.161222,-0.260116l0.159723,-0.261235l0.158278,-0.262371l0.156584,-0.263153l0.155085,-0.264255l0.1536,-0.265377l0.151923,-0.266158l0.150384,-0.267241l0.148896,-0.268345l0.14717,-0.269078l0.145631,-0.270148l0.144115,-0.271256l0.142392,-0.271964l0.140812,-0.273016l0.139271,-0.274061l0.137701,-0.27513l0.136007,-0.275853l0.134212,-0.276523l0.132792,-0.27788l0.13122,-0.278927l0.12948,-0.2796l0.127692,-0.280248l0.126089,-0.281288l0.124458,-0.282259l0.122844,-0.283278l0.121071,-0.283908l0.1194,-0.284873l0.117793,-0.285889l0.115977,-0.286481l0.114314,-0.287449l0.112665,-0.288445l0.111,-0.289396l0.109184,-0.28995l0.107493,-0.290933l0.105688,-0.291483l0.10395,-0.292438l0.10242,-0.293747l0.100446,-0.293904l0.0987174,-0.294865l0.0970004,-0.295741l0.0952589,-0.296673l0.093432,-0.297193l0.0916454,-0.298095l0.0899419,-0.299l0.0880363,-0.299494l0.0864113,-0.300803l0.0844315,-0.300864l0.0826042,-0.301742l0.08097,-0.303037l0.0790726,-0.303498l0.077182,-0.303966l0.075352,-0.304815l0.0735606,-0.305667l0.0717311,-0.306523l0.0698445,-0.306956l0.067977,-0.307814l0.0661825,-0.308637l0.0642199,-0.309046l0.0623898,-0.309888l0.0605141,-0.3107l0.0586011,-0.311113l0.0566851,-0.311912l0.0548473,-0.31272l0.0528616,-0.313118l0.0509833,-0.313908l0.0490636,-0.314694l0.0471834,-0.315487l0.0452021,-0.315855l0.0432791,-0.316619l0.0413563,-0.317401l0.0393802,-0.317753l0.037367,-0.3181l0.0354508,-0.31928l0.0335218,-0.320021l0.0315114,-0.320363l0.0295044,-0.320687l0.0274957,-0.321423l0.0255588,-0.322581l0.0235533,-0.32289l0.0215114,-0.323201l0.0194729,-0.323509l0.0174424,-0.324642l0.015484,-0.325766l0.013427,-0.325639l0.0113532,-0.325932l0.00930599,-0.327047l0.00727268,-0.327325l0.00516928,-0.32801l0.00314312,-0.328695l0.00103373,-0.32896l-0.00103396,-0.329394l-0.00314008,-0.328739l-0.00521048,-0.328454l-0.00728378,-0.328173l-0.00929665,-0.327056l-0.0114104,-0.326766l-0.0133907,-0.326056l-0.0154881,-0.325344l-0.0174862,-0.325035l-0.0195172,-0.323899l-0.0215837,-0.323999l-0.0235586,-0.323265l-0.0255712,-0.322534l-0.0275413,-0.321785l-0.0295503,-0.321042l-0.0315575,-0.320711l-0.0335681,-0.320362l-0.0354966,-0.319608l-0.0374136,-0.318422l-0.0394269,-0.318073l-0.0413491,-0.317294l-0.0433668,-0.316933l-0.0453073,-0.316561l-0.0471684,-0.31536l-0.0490872,-0.314575l-0.0510688,-0.314179l-0.0530166,-0.313789l-0.0548974,-0.312997l-0.056697,-0.311764l-0.0586858,-0.31135l-0.0606805,-0.311355l-0.0624362,-0.31012l-0.0642254,-0.308889l-0.0662687,-0.308867l-0.0680604,-0.308021l-0.0699301,-0.307167l-0.0718164,-0.306727l-0.0735512,-0.305472l-0.07548,-0.305025l-0.077366,-0.304547l-0.0791569,-0.303676l-0.0809466,-0.302812l-0.0827315,-0.301922l-0.084631,-0.301446l-0.0863757,-0.300547l-0.0881631,-0.299659l-0.0900243,-0.299149l-0.0917694,-0.298241l-0.0935159,-0.297339l-0.0953824,-0.296809l-0.0970864,-0.295886l-0.0988291,-0.29496l-0.100534,-0.294037l-0.102407,-0.293483l-0.104206,-0.292922l-0.105769,-0.291592l-0.10761,-0.29102l-0.109274,-0.290074l-0.110971,-0.289102l-0.112777,-0.288513l-0.114437,-0.287538l-0.116096,-0.286561l-0.117907,-0.285949l-0.11953,-0.284969l-0.121184,-0.283967l-0.122961,-0.283333l-0.124579,-0.282328l-0.126196,-0.281316l-0.127977,-0.280664l-0.129554,-0.279638l-0.13117,-0.278613l-0.132746,-0.277579l-0.134533,-0.276899l-0.136242,-0.276205l-0.137643,-0.274805l-0.139217,-0.273751l-0.141148,-0.273387l-0.142463,-0.271973l-0.144076,-0.270906l-0.145936,-0.270509l-0.14747,-0.269425l-0.148771,-0.267986l-0.15035,-0.266907l-0.152227,-0.266487l-0.153713,-0.265369l-0.155198,-0.264244l-0.156697,-0.26314l-0.158383,-0.262342l-0.159834,-0.261213l-0.16112,-0.259751l-0.163015,-0.259258l-0.164425,-0.258115l-0.165915,-0.256962l-0.167326,-0.255811l-0.169009,-0.254943l-0.170591,-0.254092l-0.171835,-0.252614l-0.173244,-0.251439l-0.174891,-0.250542l-0.176476,-0.249658l-0.177675,-0.248171l-0.179283,-0.247248l-0.18087,-0.246341l-0.182227,-0.245113l-0.183392,-0.243623l-0.185012,-0.242687l-0.186542,-0.241719l-0.187917,-0.240496l-0.189243,-0.239255l-0.190598,-0.237998l-0.19214,-0.237012l-0.193692,-0.236031l-0.194759,-0.234503l-0.196124,-0.233237l-0.197834,-0.232464l-0.198898,-0.230925l-0.200235,-0.229654l-0.201945,-0.22885l-0.202968,-0.227299l-0.204303,-0.226013l-0.205987,-0.225188l-0.207008,-0.223632l-0.208265,-0.222286l-0.209962,-0.221437l-0.210968,-0.219901l-0.212223,-0.218539l-0.213646,-0.217421l-0.214887,-0.216073l-0.216096,-0.214724l-0.217558,-0.213586l-0.218932,-0.212424l-0.219924,-0.210853l-0.221111,-0.209465l-0.222533,-0.208291l-0.22392,-0.207114l-0.225071,-0.20571l-0.226237,-0.204315l-0.227397,-0.202912l-0.228542,-0.201489l-0.229937,-0.200279l-0.231274,-0.199046l-0.232382,-0.197608l-0.233283,-0.195991l-0.234669,-0.194743l-0.235957,-0.193472l-0.237074,-0.192018l-0.23816,-0.190571l-0.239262,-0.189097l-0.240573,-0.187813l-0.241642,-0.186335l-0.242933,-0.185018l-0.243978,-0.183541l-0.244828,-0.181881l-0.246129,-0.180553l-0.247387,-0.179214l-0.248416,-0.177702l-0.249652,-0.17633l-0.250657,-0.174817l-0.251499,-0.173161l-0.252737,-0.171772l-0.253931,-0.17037l-0.254938,-0.168837l-0.255937,-0.167294l-0.256938,-0.165747l-0.258139,-0.164322l-0.259099,-0.162762l-0.260296,-0.161321l-0.261204,-0.159742l-0.262011,-0.158048l-0.263372,-0.156707l-0.264301,-0.155125l-0.265053,-0.153412l-0.266396,-0.152032l-0.267286,-0.150434l-0.268063,-0.148722l-0.269348,-0.147309l-0.270229,-0.145686l-0.270983,-0.143972l-0.272092,-0.14244l-0.273156,-0.140899l-0.274019,-0.139246l-0.274927,-0.13761l-0.275988,-0.136047l-0.276812,-0.134377l-0.277554,-0.132645l-0.278784,-0.131141l-0.27957,-0.129456l-0.280313,-0.12771l-0.2815,-0.126181l-0.282299,-0.124484l-0.283151,-0.12279l-0.283966,-0.121091l-0.284983,-0.119455l-0.285752,-0.117742l-0.28646,-0.115967l-0.287582,-0.114368l-0.288505,-0.112698l-0.289142,-0.11091l-0.289959,-0.109173l-0.290879,-0.107482l-0.291669,-0.105736l-0.292456,-0.103984l-0.293379,-0.102274l-0.294256,-0.100554l-0.294865,-0.0987372l-0.295665,-0.0969655l-0.296546,-0.0952282l-0.297415,-0.0934785l-0.298132,-0.0916876l-0.298763,-0.0898533l-0.299757,-0.0881209l-0.300439,-0.0863133l-0.301081,-0.0844667l-0.301924,-0.0826812l-0.302749,-0.0808846l-0.303426,-0.0790508l-0.304165,-0.0772183l-0.304954,-0.0754018l-0.305629,-0.0735508l-0.306327,-0.0716982l-0.30703,-0.0698425l-0.307805,-0.0679955l-0.308462,-0.0661248l-0.309169,-0.0642503l-0.309922,-0.0623873l-0.310578,-0.0604984l-0.311238,-0.0586037l-0.311982,-0.0567181l-0.31261,-0.0548121l-0.313289,-0.0529019l-0.313992,-0.0509962l-0.314626,-0.0490723l-0.315258,-0.0471425l-0.315895,-0.045206l-0.316611,-0.0432745l-0.317268,-0.041334l-0.317815,-0.0393723l-0.318516,-0.0374184l-0.319081,-0.0354513l-0.319744,-0.0334791l-0.320371,-0.0315058l-0.320983,-0.0295198l-0.3216,-0.0275311l-0.322181,-0.0255327l-0.322733,-0.0235256l-0.323397,-0.0215165l-0.323988,-0.0195014l-0.324575,-0.0174774l-0.325144,-0.0154466l-0.325685,-0.0134084l-0.326305,-0.0113644l-0.326838,-0.00931379l-0.327449,-0.00725624l-0.327993,-0.00519199l-0.328511,-0.00312043l-0.329086,-0.00104157l-0.329499,0.00104361l-0.328956,0.00312461l-0.328367,0.00519908l-0.327798,0.00726686l-0.32722,0.00932691l-0.326661,0.0113819l-0.326087,0.0134276l-0.32547,0.0154675l-0.324918,0.0175018l-0.324304,0.0195274l-0.323708,0.0215473l-0.323117,0.0235608l-0.322496,0.0255653l-0.321861,0.027565l-0.32129,0.0295608l-0.320671,0.0315476l-0.320038,0.0335241l-0.319395,0.0355005l-0.318829,0.0374697l-0.318067,0.0394182l-0.317466,0.0413804l-0.316861,0.0433301l-0.316159,0.045266l-0.315528,0.0472049l-0.314883,0.0491348l-0.314242,0.0510603l-0.313474,0.0529574l-0.312829,0.0548821l-0.312247,0.0567912l-0.311384,0.0586632l-0.310786,0.0605715l-0.31013,0.062463l-0.30939,0.0643306l-0.308638,0.0661968l-0.308003,0.0680787l-0.307283,0.069935l-0.3065,0.0717752l-0.305791,0.0736298l-0.305035,0.0754627l-0.304311,0.0773075l-0.30363,0.0791462l-0.302847,0.0809628l-0.302094,0.082776l-0.301295,0.0845801l-0.300567,0.086393l-0.299775,0.0881873l-0.298983,0.0899741l-0.298225,0.0917714l-0.297485,0.0935622l-0.296606,0.0953097l-0.295839,0.0970922l-0.295095,0.0988703l-0.294254,0.100616l-0.293419,0.102359l-0.292569,0.104095l-0.291776,0.105846l-0.290927,0.107571l-0.290124,0.109313l-0.289269,0.111024l-0.28838,0.112729l-0.28765,0.114483l-0.286708,0.116147l-0.285792,0.117831l-0.284969,0.119538l-0.28406,0.121212l-0.283144,0.122877l-0.2823,0.124575l-0.281456,0.126258l-0.280518,0.127904l-0.2796,0.129551l-0.27873,0.131224l-0.277784,0.132846l-0.276733,0.13443l-0.27593,0.136126l-0.275053,0.137774l-0.274001,0.139337l-0.273003,0.14093l-0.272096,0.142564l-0.271201,0.144199l-0.270195,0.145768l-0.269178,0.147338l-0.268254,0.14895l-0.267238,0.150507l-0.266221,0.152066l-0.265257,0.15365l-0.264219,0.155188l-0.26318,0.156727l-0.262198,0.158295l-0.261149,0.159818l-0.260168,0.161387l-0.259109,0.162891l-0.258018,0.164391l-0.25712,0.165998l-0.255959,0.16743l-0.254725,0.168829l-0.253806,0.170435l-0.252827,0.171979l-0.251583,0.173351l-0.250544,0.174872l-0.249535,0.176395l-0.248393,0.177831l-0.247143,0.179183l-0.246063,0.18068l-0.245131,0.182252l-0.24387,0.183589l-0.242783,0.185064l-0.241618,0.186461l-0.240304,0.187763l-0.239312,0.189313l-0.238251,0.190787l-0.23692,0.192053l-0.235801,0.193503l-0.23461,0.19487l-0.233353,0.196208l-0.232336,0.197727l-0.231006,0.198974l-0.229737,0.200298l-0.228597,0.201713l-0.227446,0.20313l-0.226196,0.204435l-0.224899,0.205726l-0.223739,0.20712l-0.222338,0.2083l-0.221144,0.209688l-0.220075,0.211169l-0.218674,0.212328l-0.217349,0.213589l-0.216127,0.214927l-0.214697,0.216074l-0.213573,0.217537l-0.212359,0.218868l-0.21091,0.219989l-0.209556,0.221201l-0.208293,0.222525l-0.207051,0.223844l-0.205555,0.224903l-0.204272,0.226211l-0.203033,0.227541l-0.201628,0.228697l-0.200332,0.229978l-0.198853,0.231036l-0.197516,0.232298l-0.196221,0.23356l-0.194701,0.234594l-0.193364,0.235838l-0.192039,0.237098l-0.190616,0.238225l-0.189151,0.239321l-0.187697,0.240422l-0.186331,0.241655l-0.184984,0.242883l-0.183521,0.243979l-0.182048,0.24505l-0.180651,0.246248l-0.179187,0.247322l-0.17756,0.248214l-0.176256,0.249555l-0.174781,0.250619l-0.173231,0.251623l-0.171925,0.252954l-0.170328,0.253845l-0.168665,0.254688l-0.167308,0.255986l-0.165886,0.257155l-0.164336,0.258144l-0.162785,0.25913l-0.161215,0.260105l-0.159743,0.261237l-0.158181,0.26221l-0.156577,0.263141l-0.155092,0.264269l-0.153511,0.265221l-0.151991,0.266312l-0.150403,0.267241l-0.148777,0.268165l-0.147269,0.26926l-0.145643,0.270168l-0.144102,0.27123l-0.142477,0.272128l-0.140832,0.273018l-0.139194,0.273912l-0.137619,0.27496l-0.13597,0.27582l-0.13438,0.27687l-0.132823,0.277905l-0.131056,0.278577l-0.129376,0.279418l-0.127837,0.280606l-0.126182,0.28145l-0.124382,0.282089l-0.12276,0.283082l-0.12113,0.284098l-0.119506,0.285076l-0.117712,0.285693l-0.116053,0.286669l-0.114338,0.287459l-0.112587,0.288245l-0.11092,0.289191l-0.109246,0.29017l-0.107513,0.290928l-0.105665,0.291476l-0.104035,0.29262l-0.102288,0.293373l-0.100498,0.294109l-0.0987264,0.294832l-0.0969859,0.295762l-0.0952813,0.296676l-0.0934072,0.29718l-0.0916677,0.298103l-0.089922,0.299l-0.0881147,0.299693l-0.0862968,0.300404l-0.0844676,0.301063l-0.082679,0.301943l-0.0809164,0.302837l-0.0790201,0.303297l-0.0772133,0.304167l-0.0754219,0.305018l-0.0735119,0.305464l-0.0716835,0.306319l-0.0698734,0.307171l-0.0679943,0.307798l-0.0661603,0.308631l-0.064242,0.309057l-0.0623286,0.309682l-0.060514,0.3107l-0.0586586,0.311524l-0.0567249,0.311913l-0.0547566,0.312316l-0.052895,0.31331l-0.0510155,0.314111l-0.049086,0.314711l-0.0471512,0.315267l-0.0452011,0.315852l-0.0432517,0.31642l-0.0413364,0.3174l-0.0394059,0.317961l-0.037392,0.318313l-0.0354469,0.319062l-0.0334801,0.319818l-0.0315115,0.320358l-0.0295032,0.320895l-0.0275515,0.321844l-0.0255458,0.322165l-0.0235032,0.322474l-0.0215053,0.323409l-0.0195105,0.324134l-0.017482,0.324634l-0.0154543,0.325147l-0.0134072,0.325641l-0.0113604,0.32614l-0.00930597,0.327041l-0.00727721,0.327529l-0.00518591,0.32781l-0.00312128,0.32849l-0.00103438,0.329166l0.00103396,0.329394l0.00314205,0.328945l0.00519059,0.328454l0.00727462,0.327761l0.0093224,0.327263l0.0113832,0.326558l0.013439,0.326264l0.0154582,0.325551l0.0174838,0.324621l0.0195422,0.324313l0.0215638,0.323999l0.0235435,0.323058l0.0255548,0.322326l0.027579,0.321993l0.029549,0.321244l0.0315376,0.320503l0.0335463,0.320159l0.0354934,0.319396l0.0374822,0.318842l0.0394327,0.318275l0.04135,0.317306l0.0433176,0.316719l0.0452976,0.316354l0.0471994,0.315567l0.0491195,0.314782l0.0510489,0.314178l0.0529469,0.313376l0.0549157,0.312989l0.0567735,0.31218l0.0586678,0.311364l0.0605986,0.310935l0.0624561,0.31012l0.0643105,0.309299l0.0662025,0.308651l0.0680802,0.308016l0.0699154,0.30719l0.0717889,0.30653l0.0736459,0.305865l0.0754569,0.305012l0.0773179,0.304353l0.0791603,0.303694l0.0809431,0.302799l0.0827315,0.301922l0.084631,0.301446l0.0863757,0.300547l0.0881631,0.299659l0.0900243,0.299149l0.091767,0.298233l0.0935183,0.297344l0.095322,0.296623l0.0971012,0.29587l0.0988972,0.29516l0.100603,0.294241l0.102316,0.293281l0.104157,0.29273l0.105842,0.291793l0.107533,0.290814l0.109366,0.29026l0.11103,0.289312l0.1127,0.288315l0.114437,0.287538l0.1161,0.28657l0.117907,0.285952l0.1196,0.285135l0.121164,0.283963l0.122885,0.283159l0.124579,0.282328l0.126191,0.281305l0.127894,0.28048l0.129579,0.27965l0.131255,0.278793l0.132836,0.277768l0.134427,0.276724l0.13617,0.276018l0.137731,0.274981l0.1393,0.273913l0.140949,0.273038l0.142599,0.272157l0.144218,0.271247l0.145758,0.270179l0.147286,0.26909l0.148998,0.268324l0.150498,0.267242l0.152023,0.26613l0.153713,0.265367l0.155102,0.26408l0.156814,0.2633l0.158288,0.262218l0.159777,0.26106l0.1615,0.260364l0.162776,0.25894l0.164374,0.257972l0.16598,0.257096l0.167438,0.255947l0.168977,0.254954l0.170415,0.253798l0.171853,0.252644l0.173462,0.251729l0.174823,0.250502l0.176296,0.249371l0.177903,0.248492l0.179262,0.247247l0.180659,0.246056l0.182123,0.244946l0.183711,0.244018l0.185001,0.24272l0.186358,0.24146l0.187994,0.240592l0.189265,0.239279l0.190706,0.238134l0.19213,0.237021l0.193378,0.235654l0.194995,0.234739l0.19629,0.233482l0.197517,0.232089l0.198943,0.230956l0.20043,0.229881l0.201815,0.228722l0.203,0.227316l0.204356,0.226093l0.205791,0.224969l0.207126,0.223743l0.208381,0.222423l0.209657,0.221126l0.211027,0.219919l0.212478,0.218815l0.213549,0.217329l0.21486,0.21604l0.216241,0.214871l0.21742,0.213471l0.218799,0.212277l0.22005,0.210967l0.221265,0.209614l0.222453,0.208236l0.223816,0.207011l0.224991,0.20564l0.226236,0.204295l0.227562,0.203058l0.228612,0.201559l0.229876,0.200236l0.231203,0.198987l0.232274,0.197514l0.233429,0.196098l0.234674,0.194765l0.23596,0.193464l0.236987,0.191963l0.238081,0.190487l0.239413,0.189216l0.240616,0.187848l0.241679,0.18637l0.242823,0.184941l0.243814,0.183411l0.244981,0.181975l0.24639,0.180756l0.247269,0.179147l0.248274,0.177599l0.249539,0.176251l0.250576,0.174744l0.251737,0.173311l0.252857,0.171866l0.253818,0.1703l0.254837,0.168768l0.255978,0.167313l0.2571,0.165851l0.258097,0.164309l0.259097,0.162758l0.260098,0.16121l0.261216,0.159724l0.262272,0.158214l0.263238,0.156638l0.264236,0.155082l0.26513,0.153457l0.266353,0.152012l0.267213,0.15039l0.268186,0.148783l0.269288,0.147288l0.270147,0.14563l0.271165,0.144069l0.272091,0.142449l0.273109,0.140877l0.274019,0.13925l0.27484,0.137568l0.275924,0.136009l0.276901,0.134415l0.277613,0.132675l0.278678,0.131093l0.279552,0.12944l0.280529,0.127806l0.281456,0.126176l0.282137,0.124408l0.283199,0.122809l0.284031,0.121119l0.284776,0.119371l0.285899,0.117783l0.286702,0.116078l0.287449,0.114324l0.288346,0.112638l0.289075,0.110876l0.290068,0.109206l0.290945,0.107509l0.291657,0.105731l0.292535,0.104014l0.293296,0.102252l0.294184,0.100525l0.294881,0.0987428l0.295644,0.0969539l0.296644,0.095258l0.2974,0.0934788l0.29808,0.0916705l0.298901,0.0898923l0.299622,0.0880938l0.300365,0.0862784l0.301232,0.0845122l0.30189,0.0826731l0.30277,0.0808901l0.303448,0.0790621l0.304052,0.0771913l0.304966,0.0753993l0.305632,0.0735547l0.306318,0.0716908l0.307064,0.0698504l0.30783,0.0679993l0.308513,0.0661383l0.309137,0.0642468l0.309909,0.0623841l0.310494,0.060484l0.31129,0.0586047l0.312059,0.056739l0.312507,0.0547928l0.313309,0.0529021l0.314037,0.0510042l0.314594,0.0490685l0.315258,0.04714l0.315984,0.04522l0.316507,0.0432665l0.317231,0.0413249l0.317909,0.0393865l0.318398,0.0374049l0.319179,0.0354578l0.319679,0.0334776l0.320404,0.0315026l0.321005,0.0295261l0.321581,0.0275295l0.3222,0.0255366l0.322696,0.0235204l0.323359,0.0215129l0.324073,0.0195048l0.324529,0.0174777l0.325111,0.0154432l0.325777,0.0134118l0.32622,0.0113641l0.326955,0.00931289l0.327416,0.00726508l0.327902,0.00518745l0.328511,0.00312129l0.329173,0.00103439Z" style="fill:#2b2a29;"/><path id="polygon29" d="M400.748,83.4435l32.4921,-19.063l-32.4921,-19.0984l-32.5276,-19.063l0,76.3228l32.5276,-19.0984Z" style="fill:#2b2a29;"/><path id="path31" d="M148.039,67.2152c0.38976,1.62992 0.24803,2.87008 -0.38977,3.7559c-0.67323,0.88583 -1.48819,1.45276 -2.55118,1.70079l-36.815,8.7874c0.7441,3.15354 1.73622,5.84646 2.94095,8.22047c1.24015,2.33859 2.79921,4.25197 4.67716,5.66929c1.87795,1.45276 4.11024,2.37402 6.66142,2.76378c2.55118,0.38977 5.52756,0.2126 8.85827,-0.60236c2.69291,-0.63779 4.99606,-1.41732 6.94488,-2.33858c1.98425,-0.95669 3.6496,-1.87795 5.06693,-2.76378c1.38189,-0.92126 2.51575,-1.70079 3.36614,-2.37402c0.88583,-0.67322 1.55905,-1.06299 2.05512,-1.16929c0.28346,-0.0709 0.56693,-0.0709 0.81496,0.0354c0.24803,0.1063 0.49606,0.24803 0.70866,0.5315c0.2126,0.24803 0.35433,0.63779 0.56693,1.13386c0.2126,0.49606 0.35433,1.13385 0.53149,1.87795c0.14174,0.5315 0.24804,0.99213 0.28347,1.41732c0.0709,0.38977 0.0709,0.77953 0.1063,1.09843c0,0.3189 -0.0354,0.63779 -0.1063,0.92126c-0.1063,0.28346 -0.2126,0.56693 -0.38976,0.85039c-0.17717,0.28347 -0.7441,0.81496 -1.77166,1.59449c-0.99212,0.81496 -2.33858,1.66535 -4.00394,2.58661c-1.66535,0.92126 -3.61417,1.87796 -5.88188,2.83465c-2.26772,0.95669 -4.7126,1.77165 -7.37008,2.37401c-4.64174,1.13386 -8.82284,1.41733 -12.6142,0.99213c-3.79133,-0.46063 -7.15748,-1.66535 -10.1338,-3.64961c-2.97638,-1.94881 -5.52756,-4.74803 -7.65355,-8.2559c-2.12598,-3.54331 -3.79134,-7.83071 -4.99606,-12.8976c-1.16929,-4.8189 -1.55906,-9.3189 -1.24016,-13.4646c0.3189,-4.14566 1.34646,-7.8307 3.04724,-11.0906c1.70079,-3.22441 4.03938,-5.98818 7.01575,-8.22047c2.97638,-2.23228 6.55512,-3.8622 10.6654,-4.8189c4.3937,-1.06299 8.32677,-1.24015 11.7638,-0.60236c3.43701,0.67323 6.44882,1.98425 9,3.86221c2.55118,1.91338 4.67716,4.3937 6.41338,7.40551c1.70079,2.97638 3.01181,6.30708 3.86221,9.99212l0.46063,1.87796l0.1063,-0.0354ZM136.949,66.6483c-1.1693,-5.42126 -3.36615,-9.38977 -6.62599,-11.8701c-3.25984,-2.48032 -7.33464,-3.11811 -12.2953,-1.94882c-2.51575,0.6378 -4.64174,1.62992 -6.30709,3.04724c-1.70079,1.41733 -2.97638,3.08268 -3.89764,4.96063c-0.92126,1.87796 -1.45275,3.96851 -1.66535,6.23622c-0.2126,2.26772 -0.0709,4.57087 0.38976,6.87402l30.437,-7.26378l-0.03543,-0.03543Z" style="fill:#2b2a29;fill-rule:nonzero;"/></g></svg>